<svg width="32" height="30" viewBox="0 0 32 30" fill="none" xmlns="http://www.w3.org/2000/svg">
<g clip-path="url(#clip0_366_24)">
<path d="M16 3.8147e-05C7.16337 3.8147e-05 0 6.7157 0 15C0 23.2843 7.16337 30 16 30C24.8366 30 32 23.2843 32 15C31.9999 6.7157 24.8364 3.8147e-05 16 3.8147e-05ZM11.7311 22.2518H8.21819V11.6118H11.7311V22.2518ZM9.95793 10.2184C8.81063 10.2184 7.88055 9.33933 7.88055 8.25513C7.88055 7.1708 8.81076 6.2918 9.95793 6.2918C11.1051 6.2918 12.0352 7.1708 12.0352 8.25513C12.0352 9.33939 11.1052 10.2184 9.95793 10.2184ZM24.8959 22.2518H21.4V16.6667C21.4 15.1348 20.7794 14.2798 19.4873 14.2798C18.0812 14.2798 17.3466 15.1703 17.3466 16.6667V22.2518H13.9773V11.6118H17.3466V13.0448C17.3466 13.0448 18.3601 11.2872 20.7666 11.2872C23.1732 11.2872 24.896 12.6648 24.896 15.5147L24.8959 22.2518Z" fill="#F2F7FF"/>
</g>
<defs>
<clipPath id="clip0_366_24">
<rect width="32" height="30" fill="white"/>
</clipPath>
</defs>
</svg>
