<svg width="32" height="30" viewBox="0 0 32 30" fill="none" xmlns="http://www.w3.org/2000/svg">
<g clip-path="url(#clip0_366_26)">
<path d="M15.9999 30C24.6209 30 31.6097 23.2843 31.6097 15C31.6097 6.71573 24.6209 0 15.9999 0C7.37886 0 0.390137 6.71573 0.390137 15C0.390137 23.2843 7.37886 30 15.9999 30Z" fill="#F2F7FF"/>
<path fill-rule="evenodd" clip-rule="evenodd" d="M26.1631 21.5464C25.9338 21.6758 25.6667 21.75 25.3815 21.75H6.61861C6.33346 21.75 6.06634 21.6758 5.83705 21.5464L12.0976 15.5303L13.6428 17.0152C14.24 17.589 15.0337 17.875 16.0001 17.875C16.9664 17.875 17.7602 17.589 18.3573 17.0152L19.9025 15.5303L26.1631 21.5464ZM26.715 21.016L20.4544 15L26.715 8.98397C26.8497 9.20431 26.9269 9.46099 26.9269 9.735V20.265C26.9269 20.539 26.8497 20.7957 26.715 21.016ZM5.28516 21.016C5.15047 20.7957 5.07324 20.539 5.07324 20.265V9.735C5.07324 9.46099 5.15047 9.20431 5.28516 8.98397L11.5457 15L5.28516 21.016ZM26.1631 8.45364L17.8054 16.4848C17.3619 16.911 16.7681 17.125 16.0001 17.125C15.232 17.125 14.6382 16.911 14.1947 16.4848L5.83705 8.45364C6.06634 8.32421 6.33346 8.25 6.61861 8.25H25.3815C25.6667 8.25 25.9338 8.32421 26.1631 8.45364Z" fill="#0B409C"/>
</g>
<defs>
<clipPath id="clip0_366_26">
<rect width="32" height="30" fill="white"/>
</clipPath>
</defs>
</svg>
