<svg width="32" height="30" viewBox="0 0 32 30" fill="none" xmlns="http://www.w3.org/2000/svg">
<g clip-path="url(#clip0_366_15)">
<mask id="mask0_366_15" style="mask-type:luminance" maskUnits="userSpaceOnUse" x="0" y="0" width="32" height="30">
<path d="M0.0297852 30V0.0187531H31.9998V30H0.0297852Z" fill="#FFFFFE"/>
</mask>
<g mask="url(#mask0_366_15)">
<path fill-rule="evenodd" clip-rule="evenodd" d="M20.5532 16.6964C20.4696 16.6764 20.382 16.6757 20.2981 16.6944C20.2141 16.7131 20.1362 16.7506 20.0712 16.8038C19.2932 17.4267 18.2187 18.0905 17.7552 18.1589C14.6467 16.7344 12.9107 14.0002 12.8452 13.4817C12.8072 13.1902 13.5197 12.1664 14.3392 11.3339C14.4427 11.2284 14.4952 11.085 14.4807 10.942C14.2722 8.69485 11.7717 7.59235 11.6662 7.54735C11.5672 7.50377 11.4564 7.48986 11.3487 7.5075C8.46168 7.95657 8.02718 9.53157 8.01018 9.59719C7.98618 9.68907 7.99018 9.78422 8.02068 9.87328C11.4642 19.8886 18.6202 21.7453 20.9722 22.3556C21.1537 22.403 21.3027 22.4405 21.4162 22.4756C21.5458 22.515 21.6864 22.5073 21.8102 22.4541C21.8822 22.4231 23.5822 21.6727 23.9977 19.2239C24.0162 19.1175 23.9977 19.0069 23.9452 18.9108C23.9082 18.8433 23.0192 17.257 20.5532 16.6964Z" fill="#10316B"/>
</g>
<path fill-rule="evenodd" clip-rule="evenodd" d="M23.998 19.2239C23.5825 21.6727 21.8825 22.4231 21.8105 22.4541C21.6867 22.5073 21.5461 22.515 21.4165 22.4756C21.303 22.4405 21.154 22.403 20.9725 22.3556C18.6205 21.7453 11.4645 19.8886 8.021 9.87328C7.99029 9.78394 7.98666 9.68835 8.0105 9.59719C8.0275 9.53156 8.462 7.95656 11.349 7.5075C11.456 7.49016 11.567 7.50328 11.6665 7.54734C11.772 7.59234 14.2725 8.69484 14.481 10.942C14.4955 11.085 14.443 11.2284 14.3395 11.3339C13.52 12.1664 12.8075 13.1902 12.8455 13.4817C12.911 14.0002 14.647 16.7344 17.7555 18.1589C18.219 18.0905 19.2935 17.4267 20.0715 16.8037C20.2045 16.6973 20.3815 16.6547 20.5535 16.6964C23.0195 17.257 23.9085 18.8433 23.9455 18.9108C23.998 19.0069 24.0165 19.1175 23.998 19.2239ZM16 0C7.1635 0 0 6.71578 0 15C0 23.2842 7.1635 30 16 30C24.8365 30 32 23.2842 32 15C32 6.71578 24.8365 0 16 0Z" fill="#F2F7FF"/>
</g>
<defs>
<clipPath id="clip0_366_15">
<rect width="32" height="30" fill="white"/>
</clipPath>
</defs>
</svg>
