<svg width="703" height="703" viewBox="0 0 703 703" fill="none" xmlns="http://www.w3.org/2000/svg">
<path opacity="0.63" d="M480.996 69.9583C406.595 20.9277 302.042 30.8364 236.27 103.614C200.308 143.419 185.701 198.173 148.373 237.124C106.347 281.029 56.1205 323.653 37.072 383.447C16.8276 446.999 34.5948 519.861 79.867 568.465C134.962 627.575 215.94 609.808 292.475 608.868C605.878 604.939 838.817 395.747 542.412 137.867C517.64 116.17 505.596 86.1026 480.996 69.9583Z" fill="#FFBE55"/>
<path d="M621.425 103.87H92.6798C82.0878 103.87 73.4604 112.412 73.4604 123.004V487.146H640.644V123.004C640.644 112.412 632.017 103.87 621.425 103.87Z" fill="#0B4870"/>
<path d="M620.741 111.899H93.363C86.7857 111.899 81.4897 117.195 81.4897 123.772V481.764H632.614V123.772C632.614 117.195 627.318 111.899 620.741 111.899Z" fill="#0E538C"/>
<path d="M101.307 138.379H612.797V469.037H101.307V138.379Z" fill="#0B4870"/>
<path d="M359.956 126.762C359.956 128.385 358.675 129.666 357.052 129.666C355.429 129.666 354.148 128.385 354.148 126.762C354.148 125.139 355.429 123.858 357.052 123.858C358.675 123.943 359.956 125.225 359.956 126.762Z" fill="#F6F6F6"/>
<path d="M165.457 156.659H216.709V165.713H165.457V156.659Z" fill="#FFBE55"/>
<path d="M119.16 156.659H140.258V165.713H119.16V156.659ZM119.16 173.23H140.258V182.285H119.16V173.23ZM119.16 192.877H140.258V201.931H119.16V192.877ZM119.16 212.438H140.258V221.492H119.16V212.438ZM119.16 232.084H140.258V241.138H119.16V232.084ZM119.16 251.645H140.258V260.699H119.16V251.645ZM227.3 156.659H399.249V165.713H227.3V156.659Z" fill="#CCE9FF"/>
<path d="M183.566 173.23H234.817V182.285H183.566V173.23Z" fill="#FFBE55"/>
<path d="M245.409 173.23H417.358V182.285H245.409V173.23Z" fill="#CCE9FF"/>
<path d="M213.804 192.877H265.056V201.931H213.804V192.877Z" fill="#FFBE55"/>
<path d="M275.648 192.877H447.597V201.931H275.648V192.877Z" fill="#CCE9FF"/>
<path d="M243.957 212.438H295.209V221.492H243.957V212.438Z" fill="#FFBE55"/>
<path d="M305.801 212.438H477.75V221.492H305.801V212.438Z" fill="#CCE9FF"/>
<path d="M213.804 232.084H265.056V241.138H213.804V232.084Z" fill="#FFBE55"/>
<path d="M275.648 232.084H538.141V241.138H275.648V232.084Z" fill="#CCE9FF"/>
<path d="M183.566 251.645H234.817V260.699H183.566V251.645Z" fill="#FFBE55"/>
<path d="M245.409 251.645H357.052V260.699H245.409V251.645Z" fill="#CCE9FF"/>
<path opacity="0.4" d="M165.457 277.356H216.709V286.411H165.457V277.356Z" fill="#FFBE55"/>
<path opacity="0.4" d="M119.16 277.356H140.258V286.411H119.16V277.356ZM119.16 293.927H140.258V302.982H119.16V293.927ZM119.16 313.574H140.258V322.628H119.16V313.574ZM119.16 333.135H140.258V342.189H119.16V333.135ZM119.16 352.781H140.258V361.836H119.16V352.781ZM119.16 372.342H140.258V381.397H119.16V372.342ZM227.3 277.356H399.249V286.411H227.3V277.356Z" fill="#CCE9FF"/>
<path opacity="0.4" d="M183.566 293.927H234.817V302.982H183.566V293.927Z" fill="#FFBE55"/>
<path opacity="0.4" d="M245.409 293.927H417.358V302.982H245.409V293.927Z" fill="#CCE9FF"/>
<path opacity="0.4" d="M213.804 313.574H265.056V322.628H213.804V313.574Z" fill="#FFBE55"/>
<path opacity="0.4" d="M275.648 313.574H447.597V322.628H275.648V313.574Z" fill="#CCE9FF"/>
<path opacity="0.4" d="M165.457 397.968H216.709V407.022H165.457V397.968Z" fill="#FFBE55"/>
<path opacity="0.4" d="M119.16 397.968H140.258V407.022H119.16V397.968ZM119.16 414.625H140.258V423.679H119.16V414.625ZM119.16 434.186H140.258V443.24H119.16V434.186ZM227.3 397.968H399.249V407.022H227.3V397.968Z" fill="#CCE9FF"/>
<path opacity="0.4" d="M183.566 414.625H234.817V423.679H183.566V414.625Z" fill="#FFBE55"/>
<path opacity="0.4" d="M245.409 414.625H417.358V423.679H245.409V414.625Z" fill="#CCE9FF"/>
<path opacity="0.4" d="M213.804 434.186H265.056V443.24H213.804V434.186Z" fill="#FFBE55"/>
<path opacity="0.4" d="M275.648 434.186H447.597V443.24H275.648V434.186Z" fill="#CCE9FF"/>
<path opacity="0.4" d="M243.957 333.135H295.209V342.189H243.957V333.135Z" fill="#FFBE55"/>
<path opacity="0.4" d="M305.801 333.135H568.294V342.189H305.801V333.135Z" fill="#CCE9FF"/>
<path opacity="0.4" d="M213.804 352.781H265.056V361.836H213.804V352.781Z" fill="#FFBE55"/>
<path opacity="0.4" d="M275.648 352.781H447.597V361.836H275.648V352.781Z" fill="#CCE9FF"/>
<path opacity="0.4" d="M183.566 372.342H234.817V381.397H183.566V372.342Z" fill="#FFBE55"/>
<path opacity="0.4" d="M245.409 372.342H417.358V381.397H245.409V372.342Z" fill="#CCE9FF"/>
<path d="M678.314 480.654H35.7906C32.1176 480.654 29.0425 483.643 29.0425 487.402V496.115C29.0425 499.788 32.0322 502.863 35.7906 502.863H678.399C682.072 502.863 685.147 499.873 685.147 496.115V487.402C685.062 483.643 682.072 480.654 678.314 480.654Z" fill="#D3D3D3"/>
<path d="M412.148 490.306H301.957C300.505 490.306 299.309 491.502 299.309 492.954C299.309 494.406 300.505 495.602 301.957 495.602H412.233C413.685 495.602 414.881 494.406 414.881 492.954C414.796 491.502 413.6 490.306 412.148 490.306Z" fill="#F7F7F7"/>
<path d="M502.777 576.58L502.692 590.332C502.692 590.332 504.4 599.13 505.852 608.526C507.219 617.922 508.33 627.916 506.877 630.223C504.059 634.835 498.506 630.223 497.567 625.61C496.627 620.998 495.26 592.211 495.26 592.211L494.321 573.675L502.777 576.58ZM516.786 574.7L514.651 587.086C514.651 587.086 510.465 620.912 512.771 626.037C515.078 631.162 522.509 628.856 522.082 621.852C521.655 614.933 523.449 590.332 523.449 590.332L527.634 575.469L516.786 574.7Z" fill="#0B4870"/>
<path d="M511.063 423.935L510.038 439.14L549.331 458.103C556.421 461.947 559.837 470.233 557.531 477.92L530.368 578.971L516.872 574.7L528.745 481.764C529.599 476.041 525.67 470.745 519.947 469.806L505.938 467.585L491.075 452.38L508.33 467.841C512.515 471.599 514.565 477.152 513.796 482.704L502.777 576.58L490.562 579.655L485.096 487.317C484.669 481.423 480.739 476.468 475.187 474.674L451.013 466.987C447.17 464.68 444.778 460.495 444.607 455.968L445.632 423.423L511.063 423.935Z" fill="#0B4870"/>
<path d="M443.069 458.018L449.561 331.768C449.561 331.768 476.383 330.145 484.412 330.145C488.769 330.145 496.2 332.195 502.094 334.074C507.646 335.868 512.173 335.697 514.907 340.823L558.898 425.217L531.82 427.779L522.765 417.529L527.378 410.61L510.892 371.83L514.138 442.301L443.069 458.018Z" fill="#FFBE55"/>
<path opacity="0.08" d="M511.49 356.454L540.703 409.158L531.649 419.835C531.649 419.835 527.976 420.604 524.474 419.408L522.851 417.529L527.463 410.61L510.978 371.83L511.49 356.454Z" fill="#0F0F0F"/>
<path d="M485.523 368.328C476.639 368.328 460.41 345.179 460.41 336.295C460.41 334.502 460.751 332.793 461.264 331.17C469.55 330.743 479.885 330.231 484.412 330.231C486.377 330.231 488.94 330.658 491.759 331.256C492.271 332.879 492.613 334.502 492.613 336.295C492.527 345.179 494.407 368.328 485.523 368.328Z" fill="white"/>
<path opacity="0.08" d="M446.315 353.635L443.069 458.787L486.462 448.365L446.315 353.635Z" fill="#0F0F0F"/>
<path d="M487.06 317.247C486.292 318.784 480.995 339.456 480.995 339.456C480.995 339.456 479.116 342.873 474.589 342.446C470.062 342.104 468.183 335.697 468.183 335.697L476.127 309.73L487.06 317.247Z" fill="#FCD2B1"/>
<path d="M459.213 304.519C459.213 318.784 474.333 334.587 488.598 334.587C502.863 334.587 510.807 318.784 510.807 304.519C510.807 290.254 499.275 278.723 485.01 278.723C470.745 278.637 459.213 290.254 459.213 304.519Z" fill="#FFBCC6"/>
<path d="M490.271 335.252C506.101 332.671 516.843 317.745 514.262 301.915C511.681 286.084 496.756 275.343 480.925 277.923C465.094 280.504 454.353 295.43 456.934 311.26C459.514 327.091 474.44 337.832 490.271 335.252Z" fill="#FFE3CA"/>
<path d="M480.141 445.888C481.252 445.547 490.819 440.848 497.567 440.848C504.315 440.848 512.601 448.024 512.601 448.024C512.601 448.024 513.711 451.782 509.184 451.013C504.657 450.245 509.782 453.832 509.782 453.832C509.782 453.832 509.526 454.003 504.23 454.772C498.934 455.541 478.433 454.43 478.433 454.43L480.141 445.888Z" fill="#FFE3CA"/>
<path d="M449.561 331.854L445.888 414.881L480.056 445.803L478.433 454.516L430.342 428.804C425.729 426.327 423.082 421.202 423.765 415.991L432.563 352.44C433.246 344.496 438.115 337.491 445.205 333.989L449.561 331.854ZM476.639 461.605H563.596V455.199H476.639C474.846 455.199 473.479 456.651 473.479 458.359C473.393 460.153 474.846 461.605 476.639 461.605Z" fill="#FFBE55"/>
<path d="M500.471 461.605H584.353C588.026 461.605 591.272 459.128 592.297 455.541L607.074 399.762C608.441 394.551 604.512 389.512 599.13 389.512H525.926C522.253 389.512 519.007 391.989 517.982 395.576L500.471 461.605Z" fill="#FFBE55"/>
<path opacity="0.22" d="M500.471 461.605H584.353C588.026 461.605 591.272 459.128 592.297 455.541L607.074 399.762C608.441 394.551 604.512 389.512 599.13 389.512H525.926C522.253 389.512 519.007 391.989 517.982 395.576L500.471 461.605Z" fill="white"/>
<path d="M549.844 430.513C548.904 434.186 551.21 437.09 554.969 437.09C558.727 437.09 562.486 434.1 563.425 430.513C564.365 426.84 562.058 423.935 558.3 423.935C554.542 423.85 550.783 426.84 549.844 430.513Z" fill="white"/>
<path d="M485.608 277.527C500.557 277.527 512.772 288.802 514.48 303.238C509.44 306.997 502.863 308.62 496.627 307.595C489.281 306.313 482.704 301.274 479.629 294.525C479.885 297.771 480.056 301.017 479.544 304.178C479.031 307.338 477.664 310.499 475.102 312.549C474.931 310.328 474.675 307.936 473.564 305.972C472.368 304.007 469.891 302.64 467.841 303.494C466.304 304.092 465.364 305.63 465.108 307.253C464.852 308.876 465.279 310.499 465.877 312.036C466.816 314.428 468.183 316.649 469.891 318.443C466.474 318.955 462.801 319.382 459.385 319.041C457.591 315.197 456.48 311.011 456.48 306.484C456.48 290.511 469.55 277.527 485.608 277.527Z" fill="#2A94F4"/>
<path d="M460.58 311.353C460.58 316.222 464.509 320.151 469.378 320.151C474.247 320.151 478.176 316.222 478.176 311.353C478.176 306.484 474.247 302.555 469.378 302.555C464.595 302.555 460.58 306.484 460.58 311.353ZM516.786 574.7L515.248 584.011L524.474 586.915L527.036 577.775L516.786 574.7ZM502.692 586.915L495.004 588.367L494.577 578.63L502.777 576.58L502.692 586.915Z" fill="#FFE3CA"/>
<path d="M469.378 290.938C476.549 290.938 482.362 285.125 482.362 277.954C482.362 270.783 476.549 264.97 469.378 264.97C462.208 264.97 456.395 270.783 456.395 277.954C456.395 285.125 462.208 290.938 469.378 290.938Z" fill="#2A94F4"/>
</svg>
